<?xml version="1.0" encoding="UTF-8"?>
<!DOCTYPE svg PUBLIC "-//W3C//DTD SVG 1.1//EN" "http://www.w3.org/Graphics/SVG/1.1/DTD/svg11.dtd">
<svg xmlns="http://www.w3.org/2000/svg" version="1.1" width="512px" height="512px" style="shape-rendering:geometricPrecision; text-rendering:geometricPrecision; image-rendering:optimizeQuality; fill-rule:evenodd; clip-rule:evenodd" xmlns:xlink="http://www.w3.org/1999/xlink">
<g><path style="opacity:0.968" fill="#000000" d="M 100.5,41.5 C 177.522,41.0271 254.522,41.5271 331.5,43C 349.378,47.5395 362.544,58.0395 371,74.5C 375.595,86.5482 372.762,96.3815 362.5,104C 353.798,107.662 345.464,106.995 337.5,102C 334.045,97.5891 330.711,93.0891 327.5,88.5C 326.335,87.4164 325.002,86.5831 323.5,86C 249.167,85.3333 174.833,85.3333 100.5,86C 93.0524,88.7337 88.2191,93.9003 86,101.5C 85.3333,176.167 85.3333,250.833 86,325.5C 87,327.5 88,329.5 89,331.5C 94.4643,335.721 99.4643,340.388 104,345.5C 109.473,358.07 106.64,368.237 95.5,376C 87.1393,379.718 79.1393,379.051 71.5,374C 55.8925,363.958 46.3925,349.791 43,331.5C 41.3542,254.193 41.0209,176.86 42,99.5C 45.4627,74.0771 58.9627,56.2437 82.5,46C 88.5532,44.1533 94.5532,42.6533 100.5,41.5 Z"/></g>
<g><path style="opacity:0.978" fill="#000000" d="M 193.5,127.5 C 263.501,127.333 333.501,127.5 403.5,128C 441.559,136.394 463.393,159.894 469,198.5C 469.667,264.833 469.667,331.167 469,397.5C 464.795,430.44 447.295,452.94 416.5,465C 410.268,466.808 403.935,468.141 397.5,469C 331.5,469.667 265.5,469.667 199.5,469C 159.922,463.755 136.088,441.588 128,402.5C 127.333,332.833 127.333,263.167 128,193.5C 135.707,157.293 157.541,135.293 193.5,127.5 Z M 203.5,170.5 C 266.834,170.333 330.168,170.5 393.5,171C 409.96,173.317 420.46,182.483 425,198.5C 425.667,264.833 425.667,331.167 425,397.5C 421.202,411.965 412.035,421.131 397.5,425C 331.167,425.667 264.833,425.667 198.5,425C 182.783,420.729 173.616,410.562 171,394.5C 170.333,330.5 170.333,266.5 171,202.5C 174.104,183.895 184.938,173.228 203.5,170.5 Z"/></g>
</svg>
