<?xml version="1.0" encoding="UTF-8"?>
<!DOCTYPE svg PUBLIC "-//W3C//DTD SVG 1.1//EN" "http://www.w3.org/Graphics/SVG/1.1/DTD/svg11.dtd">
<svg xmlns="http://www.w3.org/2000/svg" version="1.1" width="512px" height="512px" style="shape-rendering:geometricPrecision; text-rendering:geometricPrecision; image-rendering:optimizeQuality; fill-rule:evenodd; clip-rule:evenodd" xmlns:xlink="http://www.w3.org/1999/xlink">
<g><path style="opacity:0.922" fill="#000000" d="M 245.5,64.5 C 261.421,59.7468 271.921,65.0802 277,80.5C 277.667,92.5 277.667,104.5 277,116.5C 270.451,132.526 259.285,137.026 243.5,130C 239.072,126.908 236.239,122.741 235,117.5C 233.025,104.504 233.025,91.5042 235,78.5C 235.471,76.7536 236.138,75.087 237,73.5C 240.043,70.5915 242.876,67.5915 245.5,64.5 Z"/></g>
<g><path style="opacity:0.931" fill="#000000" d="M 129.5,113.5 C 135.865,112.901 141.865,114.068 147.5,117C 158.399,127.23 168.566,138.063 178,149.5C 182.3,166.915 175.633,176.915 158,179.5C 153.495,179.554 149.328,178.387 145.5,176C 136,166.5 126.5,157 117,147.5C 109.878,131.677 114.044,120.343 129.5,113.5 Z"/></g>
<g><path style="opacity:0.929" fill="#000000" d="M 371.5,113.5 C 385.756,111.7 394.589,117.7 398,131.5C 398.771,137.855 397.105,143.522 393,148.5C 383.833,157.667 374.667,166.833 365.5,176C 351.628,182.929 340.794,179.763 333,166.5C 329.965,157.513 331.631,149.513 338,142.5C 347.167,134.667 355.667,126.167 363.5,117C 366.158,115.522 368.825,114.355 371.5,113.5 Z"/></g>
<g><path style="opacity:0.966" fill="#000000" d="M 246.5,193.5 C 277.983,191.184 300.483,204.184 314,232.5C 324.442,269.444 312.608,296.611 278.5,314C 245.735,324.08 219.902,314.913 201,286.5C 184.305,246.912 194.805,217.078 232.5,197C 237.224,195.506 241.891,194.339 246.5,193.5 Z"/></g>
<g><path style="opacity:0.92" fill="#000000" d="M 83.5,233.5 C 93.1724,233.334 102.839,233.5 112.5,234C 127.623,236.453 134.457,245.287 133,260.5C 130.096,269.07 124.263,274.57 115.5,277C 103.833,277.667 92.1667,277.667 80.5,277C 64.9178,271.917 59.7511,261.417 65,245.5C 69.5126,238.798 75.6793,234.798 83.5,233.5 Z"/></g>
<g><path style="opacity:0.915" fill="#000000" d="M 398.5,233.5 C 408.172,233.334 417.839,233.5 427.5,234C 440.103,235.769 447.103,242.936 448.5,255.5C 447.32,266.69 441.32,273.856 430.5,277C 418.833,277.667 407.167,277.667 395.5,277C 378.752,271.003 373.918,259.836 381,243.5C 385.669,237.921 391.502,234.588 398.5,233.5 Z"/></g>
<g><path style="opacity:0.932" fill="#000000" d="M 153.5,331.5 C 174.287,331.465 182.454,341.465 178,361.5C 168.9,372.603 159.067,383.103 148.5,393C 134.232,401.246 122.898,398.246 114.5,384C 114.833,383.667 115.167,383.333 115.5,383C 113.026,375.352 114.193,368.185 119,361.5C 127.833,354 136,345.833 143.5,337C 146.767,334.87 150.1,333.037 153.5,331.5 Z"/></g>
<g><path style="opacity:0.927" fill="#000000" d="M 348.5,331.5 C 355.581,330.805 361.914,332.639 367.5,337C 377.03,346.196 386.197,355.696 395,365.5C 400.185,376.512 398.019,386.012 388.5,394C 380.975,399.291 373.308,399.624 365.5,395C 354.667,385.5 344.5,375.333 335,364.5C 327.92,348.67 332.42,337.67 348.5,331.5 Z"/></g>
<g><path style="opacity:0.915" fill="#000000" d="M 250.5,377.5 C 263.816,376.238 272.649,381.905 277,394.5C 277.942,407.57 277.609,420.57 276,433.5C 267.299,449.692 255.466,452.525 240.5,442C 236.601,437.979 234.434,433.145 234,427.5C 233.117,416.117 233.45,404.783 235,393.5C 237.685,385.65 242.852,380.316 250.5,377.5 Z"/></g>
</svg>
