<?xml version="1.0" encoding="UTF-8"?>
<!DOCTYPE svg PUBLIC "-//W3C//DTD SVG 1.1//EN" "http://www.w3.org/Graphics/SVG/1.1/DTD/svg11.dtd">
<svg xmlns="http://www.w3.org/2000/svg" version="1.1" width="512px" height="512px" style="shape-rendering:geometricPrecision; text-rendering:geometricPrecision; image-rendering:optimizeQuality; fill-rule:evenodd; clip-rule:evenodd" xmlns:xlink="http://www.w3.org/1999/xlink">
<g><path style="opacity:0.974" fill="#000000" d="M 113.5,41.5 C 138.399,41.9743 161.399,48.8076 182.5,62C 186.994,65.4141 191.66,68.5808 196.5,71.5C 235.833,60.8333 275.167,60.8333 314.5,71.5C 337.691,53.4118 364.024,43.4118 393.5,41.5C 402.849,41.9216 409.682,46.2549 414,54.5C 417.029,62.5864 419.029,70.9198 420,79.5C 420.706,94.8907 420.373,110.224 419,125.5C 428.257,141.27 433.923,158.27 436,176.5C 438.653,202.709 437.319,228.709 432,254.5C 421.453,296.05 396.286,324.883 356.5,341C 351.362,342.989 346.196,344.822 341,346.5C 341.619,381.476 341.619,416.476 341,451.5C 335.026,468.235 323.86,473.069 307.5,466C 302.295,462.469 299.129,457.636 298,451.5C 297.667,418.5 297.333,385.5 297,352.5C 296.249,348.734 294.249,345.734 291,343.5C 283.722,329.17 286.889,318.004 300.5,310C 329.858,307.898 354.691,296.398 375,275.5C 384.593,262.062 390.26,247.062 392,230.5C 394.501,209.382 393.835,188.382 390,167.5C 389,164.5 388,161.5 387,158.5C 382.573,149.973 377.906,141.64 373,133.5C 372.061,125.917 373.061,118.584 376,111.5C 377.142,103.875 377.642,96.2079 377.5,88.5C 368.987,90.2525 360.987,93.4191 353.5,98C 345.222,103.278 337.222,108.945 329.5,115C 325.042,117.141 320.375,117.807 315.5,117C 287.119,107.356 258.119,104.689 228.5,109C 216.125,111.677 203.792,114.51 191.5,117.5C 188.002,117.292 184.669,116.459 181.5,115C 167.288,103.14 151.455,93.9738 134,87.5C 132.803,99.4564 134.137,111.123 138,122.5C 138.726,127.239 138.393,131.905 137,136.5C 125.357,151.088 119.024,167.755 118,186.5C 116.095,209.208 118.095,231.541 124,253.5C 129.648,269.298 139.482,281.798 153.5,291C 170.934,301.781 189.934,308.115 210.5,310C 224.108,318.051 227.275,329.217 220,343.5C 216.751,345.734 214.751,348.734 214,352.5C 213.667,385.5 213.333,418.5 213,451.5C 207.026,468.235 195.86,473.069 179.5,466C 174.295,462.469 171.129,457.636 170,451.5C 169.5,442.506 169.334,433.506 169.5,424.5C 138.135,420.559 110.969,407.892 88,386.5C 79.427,375.203 70.2603,364.369 60.5,354C 50.7728,350.278 44.6061,343.444 42,333.5C 41.2522,318.316 48.4189,309.983 63.5,308.5C 67.3265,308.608 70.9932,309.442 74.5,311C 85.7919,317.281 95.6253,325.448 104,335.5C 110.454,344.289 117.287,352.789 124.5,361C 137.8,370.481 152.467,376.981 168.5,380.5C 169.506,369.165 170.006,357.832 170,346.5C 137.838,336.658 112.171,317.991 93,290.5C 83.9304,274.291 78.2637,256.958 76,238.5C 71.9948,210.633 72.9948,182.966 79,155.5C 82.44,144 86.94,133 92.5,122.5C 89.1574,105.76 88.9907,89.0931 92,72.5C 93.4081,64.8659 95.7415,57.5326 99,50.5C 103.015,45.9464 107.848,42.9464 113.5,41.5 Z"/></g>
</svg>
