<?xml version="1.0" encoding="UTF-8"?>
<!DOCTYPE svg PUBLIC "-//W3C//DTD SVG 1.1//EN" "http://www.w3.org/Graphics/SVG/1.1/DTD/svg11.dtd">
<svg xmlns="http://www.w3.org/2000/svg" version="1.1" width="512px" height="512px" style="shape-rendering:geometricPrecision; text-rendering:geometricPrecision; image-rendering:optimizeQuality; fill-rule:evenodd; clip-rule:evenodd" xmlns:xlink="http://www.w3.org/1999/xlink">
<g><path style="opacity:0.968" fill="#000000" d="M 100.5,41.5 C 138.501,41.3333 176.501,41.5 214.5,42C 227.189,43.5356 233.856,50.7022 234.5,63.5C 234.129,75.3717 228.129,82.5383 216.5,85C 177.833,85.3333 139.167,85.6667 100.5,86C 94.0903,88.0754 89.5903,92.2421 87,98.5C 85.34,202.11 85.0067,305.777 86,409.5C 88.232,417.152 93.0653,422.319 100.5,425C 204.89,425.993 309.223,425.66 413.5,424C 419.172,420.657 423.005,415.824 425,409.5C 425.333,370.833 425.667,332.167 426,293.5C 430.254,280.784 439.087,275.284 452.5,277C 461.333,279.167 466.833,284.667 469,293.5C 469.667,332.833 469.667,372.167 469,411.5C 465.537,436.923 452.037,454.756 428.5,465C 422.674,467.099 416.674,468.432 410.5,469C 307.167,469.667 203.833,469.667 100.5,469C 76.0862,465.924 58.2529,453.424 47,431.5C 44.3914,425.066 42.7247,418.399 42,411.5C 41.3333,307.5 41.3333,203.5 42,99.5C 45.4627,74.0771 58.9627,56.2437 82.5,46C 88.5532,44.1533 94.5532,42.6533 100.5,41.5 Z"/></g>
<g><path style="opacity:0.976" fill="#000000" d="M 339.5,41.5 C 376.168,41.3333 412.835,41.5 449.5,42C 459.777,43.6092 466.277,49.4425 469,59.5C 469.976,98.8799 469.643,138.213 468,177.5C 460.442,192.072 449.275,195.572 434.5,188C 429.996,184.16 427.162,179.327 426,173.5C 425.667,154.5 425.333,135.5 425,116.5C 383.167,158.333 341.333,200.167 299.5,242C 285.387,248.598 274.554,245.098 267,231.5C 264.703,224.539 265.37,217.873 269,211.5C 310.833,169.667 352.667,127.833 394.5,86C 375.5,85.6667 356.5,85.3333 337.5,85C 322.917,81.0188 317.084,71.5188 320,56.5C 323.556,47.4916 330.056,42.4916 339.5,41.5 Z"/></g>
</svg>
