<?xml version="1.0" encoding="UTF-8"?>
<!DOCTYPE svg PUBLIC "-//W3C//DTD SVG 1.1//EN" "http://www.w3.org/Graphics/SVG/1.1/DTD/svg11.dtd">
<svg xmlns="http://www.w3.org/2000/svg" version="1.1" width="512px" height="512px" style="shape-rendering:geometricPrecision; text-rendering:geometricPrecision; image-rendering:optimizeQuality; fill-rule:evenodd; clip-rule:evenodd" xmlns:xlink="http://www.w3.org/1999/xlink">
<g><path style="opacity:0.967" fill="#000000" d="M 101.5,25.5 C 143.118,27.2839 164.285,48.9505 165,90.5C 160.613,118.887 144.446,136.387 116.5,143C 80.4075,146.053 57.5742,130.22 48,95.5C 44.9911,56.0307 62.8244,32.6973 101.5,25.5 Z M 103.5,58.5 C 120.734,59.1085 130.401,67.9418 132.5,85C 128.883,105.992 116.883,113.992 96.5,109C 79.8557,99.413 76.0224,86.2463 85,69.5C 89.8199,63.3484 95.9865,59.6817 103.5,58.5 Z"/></g>
<g><path style="opacity:0.983" fill="#000000" d="M 60.5,153.5 C 90.8352,153.333 121.168,153.5 151.5,154C 157.268,155.126 161.435,158.293 164,163.5C 165.657,259.123 165.99,354.79 165,450.5C 163.702,456.469 160.202,460.635 154.5,463C 122.5,463.667 90.5,463.667 58.5,463C 53.4268,461.594 49.9268,458.428 48,453.5C 47.3333,357.167 47.3333,260.833 48,164.5C 50.5048,158.822 54.6714,155.155 60.5,153.5 Z M 79.5,186.5 C 97.1667,186.5 114.833,186.5 132.5,186.5C 132.5,268.167 132.5,349.833 132.5,431.5C 114.833,431.5 97.1667,431.5 79.5,431.5C 79.5,349.833 79.5,268.167 79.5,186.5 Z"/></g>
<g><path style="opacity:0.975" fill="#000000" d="M 210.5,153.5 C 240.502,153.333 270.502,153.5 300.5,154C 307.333,155.157 311.833,158.99 314,165.5C 314.172,169.871 314.672,174.204 315.5,178.5C 343.732,164.572 373.398,159.739 404.5,164C 452.934,177.101 479.767,208.601 485,258.5C 485.667,322.5 485.667,386.5 485,450.5C 483.702,456.469 480.202,460.635 474.5,463C 442.5,463.667 410.5,463.667 378.5,463C 373.427,461.594 369.927,458.428 368,453.5C 367.667,401.5 367.333,349.5 367,297.5C 365,282.167 356.333,273.5 341,271.5C 327.437,273.064 318.771,280.397 315,293.5C 314.667,346.5 314.333,399.5 314,452.5C 311.833,457.333 308.333,460.833 303.5,463C 271.5,463.667 239.5,463.667 207.5,463C 202.667,460.833 199.167,457.333 197,452.5C 196.333,356.833 196.333,261.167 197,165.5C 199.404,159.061 203.904,155.061 210.5,153.5 Z M 229.5,186.5 C 246.833,186.5 264.167,186.5 281.5,186.5C 280.874,195.347 281.707,204.014 284,212.5C 290.459,220.322 298.292,222.155 307.5,218C 322.591,211.081 337.924,204.747 353.5,199C 388.245,188.143 417.079,196.643 440,224.5C 446.832,234.831 450.832,246.165 452,258.5C 452.5,316.166 452.667,373.832 452.5,431.5C 434.833,431.5 417.167,431.5 399.5,431.5C 399.977,381.795 399.477,332.128 398,282.5C 388.742,255.241 369.742,240.908 341,239.5C 307.953,241.542 288.287,258.875 282,291.5C 281.5,338.165 281.333,384.832 281.5,431.5C 264.167,431.5 246.833,431.5 229.5,431.5C 229.5,349.833 229.5,268.167 229.5,186.5 Z"/></g>
</svg>
