<?xml version="1.0" encoding="UTF-8"?>
<!DOCTYPE svg PUBLIC "-//W3C//DTD SVG 1.1//EN" "http://www.w3.org/Graphics/SVG/1.1/DTD/svg11.dtd">
<svg xmlns="http://www.w3.org/2000/svg" version="1.1" width="512px" height="512px" style="shape-rendering:geometricPrecision; text-rendering:geometricPrecision; image-rendering:optimizeQuality; fill-rule:evenodd; clip-rule:evenodd" xmlns:xlink="http://www.w3.org/1999/xlink">
<g><path style="opacity:0.974" fill="#000000" d="M 247.5,41.5 C 330.943,41.9463 391.777,78.9463 430,152.5C 456.584,215.357 452.917,276.357 419,335.5C 393.757,374.747 362.257,408.247 324.5,436C 308.679,447.413 292.346,458.08 275.5,468C 262.167,474 248.833,474 235.5,468C 189.364,441.55 148.864,408.05 114,367.5C 91.1807,339.527 75.514,307.86 67,272.5C 54.0721,192.58 79.2388,127.747 142.5,78C 173.989,55.56 208.989,43.3933 247.5,41.5 Z M 241.5,85.5 C 300.031,82.8521 346.198,105.185 380,152.5C 412.11,205.948 412.444,259.615 381,313.5C 364.133,339.379 343.967,362.545 320.5,383C 300.233,400.136 278.566,415.303 255.5,428.5C 212.133,403.982 174.633,372.315 143,333.5C 127.467,312.763 116.467,289.763 110,264.5C 99.9577,205.616 117.458,156.783 162.5,118C 185.904,99.9619 212.238,89.1285 241.5,85.5 Z M 246.5,192.5 C 269.085,190.205 285.252,199.205 295,219.5C 301.083,240.587 295.25,257.42 277.5,270C 251.808,281.704 231.642,275.538 217,251.5C 208.791,222.585 218.624,202.918 246.5,192.5 Z"/></g>
<g><path style="opacity:0.974" fill="#000000" d="M 245.5,148.5 C 287.113,146.547 316.946,164.214 335,201.5C 347.452,237.579 340.619,269.412 314.5,297C 287.482,319.722 257.149,325.388 223.5,314C 181.659,293.824 164.493,260.657 172,214.5C 182.873,177.118 207.373,155.118 245.5,148.5 Z M 246.5,192.5 C 218.624,202.918 208.791,222.585 217,251.5C 231.642,275.538 251.808,281.704 277.5,270C 295.25,257.42 301.083,240.587 295,219.5C 285.252,199.205 269.085,190.205 246.5,192.5 Z"/></g>
</svg>
