<?xml version="1.0" encoding="UTF-8"?>
<!DOCTYPE svg PUBLIC "-//W3C//DTD SVG 1.1//EN" "http://www.w3.org/Graphics/SVG/1.1/DTD/svg11.dtd">
<svg xmlns="http://www.w3.org/2000/svg" version="1.1" width="512px" height="512px" style="shape-rendering:geometricPrecision; text-rendering:geometricPrecision; image-rendering:optimizeQuality; fill-rule:evenodd; clip-rule:evenodd" xmlns:xlink="http://www.w3.org/1999/xlink">
<g><path style="opacity:0.98" fill="#000000" d="M 102.5,84.5 C 204.501,84.3333 306.501,84.5 408.5,85C 447.478,89.9803 467.644,112.147 469,151.5C 469.667,220.833 469.667,290.167 469,359.5C 467.63,398.866 447.464,421.033 408.5,426C 306.5,426.667 204.5,426.667 102.5,426C 64.0108,421.175 43.8442,399.342 42,360.5C 41.035,286.815 41.3683,213.149 43,139.5C 49.262,106.402 69.0954,88.0688 102.5,84.5 Z M 129.5,127.5 C 215.531,127.016 301.531,127.516 387.5,129C 346.679,159.91 305.679,190.577 264.5,221C 258.5,224.333 252.5,224.333 246.5,221C 205.217,190.718 164.217,160.052 123.5,129C 125.708,128.809 127.708,128.309 129.5,127.5 Z M 85.5,155.5 C 130.724,190.22 176.391,224.386 222.5,258C 244.5,269.333 266.5,269.333 288.5,258C 334.089,223.955 379.589,189.788 425,155.5C 425.667,224.833 425.667,294.167 425,363.5C 424.371,371.459 420.537,377.292 413.5,381C 407.897,382.124 402.231,382.79 396.5,383C 302.5,383.667 208.5,383.667 114.5,383C 107.973,383.013 101.639,382.013 95.5,380C 89.8533,376.353 86.6867,371.187 86,364.5C 85.5,294.834 85.3333,225.167 85.5,155.5 Z"/></g>
</svg>
