<?xml version="1.0" encoding="UTF-8"?>
<!DOCTYPE svg PUBLIC "-//W3C//DTD SVG 1.1//EN" "http://www.w3.org/Graphics/SVG/1.1/DTD/svg11.dtd">
<svg xmlns="http://www.w3.org/2000/svg" version="1.1" width="512px" height="512px" style="shape-rendering:geometricPrecision; text-rendering:geometricPrecision; image-rendering:optimizeQuality; fill-rule:evenodd; clip-rule:evenodd" xmlns:xlink="http://www.w3.org/1999/xlink">
<g><path style="opacity:0.967" fill="#000000" d="M 82.5,89.5 C 197.834,89.3333 313.167,89.5 428.5,90C 441.759,94.0802 445.593,102.58 440,115.5C 437.635,118.869 434.468,121.036 430.5,122C 313.833,122.667 197.167,122.667 80.5,122C 68.5414,116.899 65.3747,108.399 71,96.5C 74.2635,93.0374 78.0968,90.7041 82.5,89.5 Z"/></g>
<g><path style="opacity:0.996" fill="#000000" d="M 79.5,239.5 C 196.834,239.333 314.167,239.5 431.5,240C 442.431,245.362 445.265,253.528 440,264.5C 437.736,267.433 434.902,269.6 431.5,271C 314.167,271.667 196.833,271.667 79.5,271C 68.5687,265.638 65.7354,257.472 71,246.5C 73.4412,243.546 76.2745,241.213 79.5,239.5 Z"/></g>
<g><path style="opacity:0.967" fill="#000000" d="M 80.5,388.5 C 197.167,388.333 313.834,388.5 430.5,389C 442.729,394.691 445.563,403.524 439,415.5C 436.88,418.43 434.047,420.263 430.5,421C 313.833,421.667 197.167,421.667 80.5,421C 68.8726,415.795 65.706,407.295 71,395.5C 73.529,392.115 76.6956,389.782 80.5,388.5 Z"/></g>
</svg>
