<?xml version="1.0" encoding="UTF-8"?>
<!DOCTYPE svg PUBLIC "-//W3C//DTD SVG 1.1//EN" "http://www.w3.org/Graphics/SVG/1.1/DTD/svg11.dtd">
<svg xmlns="http://www.w3.org/2000/svg" version="1.1" width="512px" height="512px" style="shape-rendering:geometricPrecision; text-rendering:geometricPrecision; image-rendering:optimizeQuality; fill-rule:evenodd; clip-rule:evenodd" xmlns:xlink="http://www.w3.org/1999/xlink">
<g><path style="opacity:0.977" fill="#000000" d="M 377.5,63.5 C 392.164,61.4 401.331,67.4 405,81.5C 405.5,96.8297 405.667,112.163 405.5,127.5C 422.57,127.043 439.57,127.543 456.5,129C 465.094,132.845 469.427,139.512 469.5,149C 468.916,158.181 464.583,164.848 456.5,169C 439.556,170.442 422.556,170.942 405.5,170.5C 405.667,185.837 405.5,201.17 405,216.5C 402.556,228.109 395.389,234.109 383.5,234.5C 371.611,234.109 364.444,228.109 362,216.5C 361.5,201.17 361.333,185.837 361.5,170.5C 344.444,170.942 327.444,170.442 310.5,169C 297.81,161.09 294.643,150.257 301,136.5C 303.592,133.238 306.759,130.738 310.5,129C 327.43,127.543 344.43,127.043 361.5,127.5C 361.333,111.83 361.5,96.1631 362,80.5C 364.256,72.0814 369.423,66.4147 377.5,63.5 Z"/></g>
<g><path style="opacity:0.975" fill="#000000" d="M 201.5,108.5 C 216.322,107.653 224.322,114.653 225.5,129.5C 224.756,132.443 224.256,135.443 224,138.5C 210.412,172.748 210.079,207.081 223,241.5C 247.294,292.088 287.628,318.088 344,319.5C 354.183,318.46 364.35,317.627 374.5,317C 389.022,320.23 394.855,329.063 392,343.5C 368.348,396.146 328.514,429.646 272.5,444C 196.74,457.985 136.24,434.152 91,372.5C 60.6434,322.967 54.9767,270.633 74,215.5C 98.749,158.56 141.249,122.893 201.5,108.5 Z M 169.5,166.5 C 163.511,233.375 186.844,287.875 239.5,330C 266.062,349.024 295.729,359.857 328.5,362.5C 297.856,395.137 260.189,408.637 215.5,403C 174.226,396.045 143.059,374.545 122,338.5C 100.482,295.311 101.482,252.644 125,210.5C 136.405,192.261 151.239,177.594 169.5,166.5 Z"/></g>
</svg>
