<?xml version="1.0" encoding="UTF-8"?>
<!DOCTYPE svg PUBLIC "-//W3C//DTD SVG 1.1//EN" "http://www.w3.org/Graphics/SVG/1.1/DTD/svg11.dtd">
<svg xmlns="http://www.w3.org/2000/svg" version="1.1" width="512px" height="512px" style="shape-rendering:geometricPrecision; text-rendering:geometricPrecision; image-rendering:optimizeQuality; fill-rule:evenodd; clip-rule:evenodd" xmlns:xlink="http://www.w3.org/1999/xlink">
<g><path style="opacity:0.98" fill="#000000" d="M 200.5,104.5 C 202.527,104.338 204.527,104.505 206.5,105C 205.794,108.131 205.127,111.298 204.5,114.5C 207.205,185.783 238.205,240.617 297.5,279C 331.501,298.5 368.168,307.333 407.5,305.5C 401.677,325.146 392.177,342.812 379,358.5C 326.818,414.518 264.651,429.018 192.5,402C 141.142,377.319 109.642,337.153 98,281.5C 89.7465,217.867 110.246,166.033 159.5,126C 164.506,123.499 169.173,120.499 173.5,117C 182.725,112.891 191.725,108.724 200.5,104.5 Z"/></g>
</svg>
