<?xml version="1.0" encoding="UTF-8"?>
<!DOCTYPE svg PUBLIC "-//W3C//DTD SVG 1.1//EN" "http://www.w3.org/Graphics/SVG/1.1/DTD/svg11.dtd">
<svg xmlns="http://www.w3.org/2000/svg" version="1.1" width="512px" height="512px" style="shape-rendering:geometricPrecision; text-rendering:geometricPrecision; image-rendering:optimizeQuality; fill-rule:evenodd; clip-rule:evenodd" xmlns:xlink="http://www.w3.org/1999/xlink">
<g><path style="opacity:0.975" fill="#000000" d="M 77.5,20.5 C 107.209,20.0401 136.875,20.5401 166.5,22C 189.643,27.8188 205.143,41.9855 213,64.5C 216.824,90.4609 223.157,115.794 232,140.5C 236.008,164.153 229.675,184.486 213,201.5C 208.448,205.723 203.948,209.89 199.5,214C 224.357,253.69 256.69,285.857 296.5,310.5C 303.683,303.483 311.016,296.65 318.5,290C 332.414,280.688 347.748,276.688 364.5,278C 378.605,281.59 392.605,285.59 406.5,290C 419.833,292.667 433.167,295.333 446.5,298C 470.337,307.178 484.837,324.345 490,349.5C 490.667,377.5 490.667,405.5 490,433.5C 485.81,458.02 472.31,475.186 449.5,485C 442.667,487.292 435.667,488.792 428.5,489.5C 293.52,474.79 185.687,413.457 105,305.5C 58.0023,239.531 30.5023,166.031 22.5,85C 23.9457,56.9182 37.279,36.9182 62.5,25C 67.5772,23.32 72.5772,21.82 77.5,20.5 Z M 86.5,63.5 C 108.169,63.3334 129.836,63.5 151.5,64C 162.3,65.1298 169.133,70.9631 172,81.5C 175.47,104.715 181.137,127.381 189,149.5C 190.304,156.754 188.471,163.087 183.5,168.5C 173.151,178.016 163.318,188.016 154,198.5C 150.791,204.114 149.791,210.114 151,216.5C 184.167,279 232,326.833 294.5,360C 300.886,361.209 306.886,360.209 312.5,357C 323.476,345.692 334.809,334.692 346.5,324C 351.602,321.657 356.936,320.99 362.5,322C 384.44,330.485 407.106,336.152 430.5,339C 437.681,341.205 442.848,345.705 446,352.5C 447.594,376.468 447.928,400.468 447,424.5C 445.571,437.349 438.404,444.349 425.5,445.5C 325.21,432.939 240.376,390.272 171,317.5C 111.572,251.615 76.7384,174.281 66.5,85.5C 67.2819,72.7216 73.9486,65.3883 86.5,63.5 Z"/></g>
</svg>
